<?xml version="1.0" standalone="no"?>
<!DOCTYPE svg PUBLIC "-//W3C//DTD SVG 20010904//EN"
 "http://www.w3.org/TR/2001/REC-SVG-20010904/DTD/svg10.dtd">
<svg version="1.0" xmlns="http://www.w3.org/2000/svg"
 width="1920.000000pt" height="720.000000pt" viewBox="0 0 1920.000000 720.000000"
 preserveAspectRatio="xMidYMid meet">

<g transform="translate(0.000000,720.000000) scale(0.100000,-0.100000)"
fill="#000000" stroke="none">
<path d="M9620 4649 c-78 -53 -268 -249 -328 -339 -61 -92 -114 -190 -133
-249 -6 -20 -15 -40 -19 -46 -13 -17 -51 -143 -63 -203 -14 -77 -14 -434 0
-497 23 -102 33 -134 64 -211 85 -214 176 -351 335 -504 138 -131 262 -210
437 -280 78 -30 248 -73 340 -85 46 -6 47 -7 47 -43 0 -20 -7 -50 -16 -67 -9
-16 -20 -52 -24 -80 -5 -27 -12 -60 -16 -72 -4 -16 -2 -23 7 -23 13 0 243 129
579 325 263 153 273 160 277 170 3 11 -337 212 -447 264 -36 18 -103 54 -149
81 -46 28 -86 50 -88 50 -2 0 -20 11 -41 23 -20 13 -59 36 -85 50 -70 39 -72
21 -16 -157 26 -82 25 -96 -8 -96 -15 0 -40 4 -57 9 -259 77 -318 107 -447
228 -120 114 -195 233 -251 403 -30 91 -31 102 -32 260 0 181 13 248 72 380
91 203 278 385 486 473 l56 23 -146 84 c-81 47 -175 102 -211 123 -36 20 -68
37 -71 37 -4 0 -27 -14 -52 -31z"/>
<path d="M1120 4574 c-314 -60 -535 -250 -636 -546 -95 -282 -78 -657 41 -903
100 -206 293 -362 520 -421 99 -26 330 -26 438 -1 237 56 409 212 506 460 17
43 31 86 31 95 0 15 -35 29 -176 74 -115 37 -177 52 -179 44 -72 -257 -202
-376 -410 -376 -210 0 -362 125 -419 346 -39 153 -40 424 -1 576 61 235 271
379 497 340 149 -26 253 -111 303 -247 10 -27 19 -51 20 -53 3 -5 350 80 358
88 11 10 -45 148 -89 221 -73 121 -223 230 -379 278 -68 20 -105 24 -240 27
-88 1 -171 0 -185 -2z"/>
<path d="M6530 4420 l-165 -98 -3 -136 -3 -136 -79 0 -80 0 0 -140 0 -140 80
0 80 0 0 -352 c0 -194 4 -390 10 -435 11 -99 41 -173 85 -212 92 -80 289 -102
465 -51 67 19 65 14 50 160 -12 126 -14 132 -34 127 -108 -25 -133 -28 -158
-18 -60 23 -60 28 -66 421 l-5 359 124 3 124 3 0 140 0 140 -122 3 -123 3 0
229 c0 127 -3 230 -7 229 -5 0 -82 -45 -173 -99z"/>
<path d="M7730 4079 c-163 -14 -296 -75 -406 -184 -179 -178 -239 -426 -173
-712 25 -110 76 -208 148 -285 70 -75 143 -121 253 -160 287 -102 588 -32 778
179 57 64 130 205 152 293 19 81 16 299 -6 380 -91 330 -383 522 -746 489z
m206 -308 c147 -65 225 -250 196 -465 -26 -197 -133 -313 -298 -324 -96 -6
-158 15 -228 78 -66 62 -101 136 -115 248 -17 135 6 266 62 348 88 130 243
176 383 115z"/>
<path d="M2909 4069 c-80 -12 -136 -51 -200 -140 l-44 -60 -3 86 -3 85 -164 0
-165 0 0 -665 0 -665 175 0 175 0 0 273 c0 569 31 711 166 763 53 20 123 15
185 -15 24 -12 46 -21 50 -21 3 0 28 62 54 138 26 75 51 140 54 144 8 9 495
-1271 493 -1295 -2 -38 -64 -152 -101 -187 -52 -50 -109 -65 -222 -57 -104 8
-96 24 -77 -146 9 -90 15 -110 31 -119 11 -5 72 -12 136 -15 258 -11 402 61
496 247 34 68 595 1591 595 1616 0 12 -28 14 -177 12 l-178 -3 -27 -80 c-15
-44 -84 -254 -154 -467 -70 -213 -130 -386 -133 -384 -3 2 -76 212 -161 465
l-155 461 -188 0 c-140 0 -186 -3 -181 -12 8 -12 5 -12 -86 20 -67 24 -129 31
-191 21z"/>
<path d="M5445 4069 c-121 -15 -224 -70 -312 -167 l-42 -47 -1 93 0 92 -167 0
-166 0 6 -547 c4 -302 7 -716 7 -920 l0 -373 175 0 175 0 0 336 0 336 60 -55
c198 -183 479 -180 678 8 120 112 182 251 202 450 12 122 6 225 -21 342 -68
299 -315 486 -594 452z m85 -299 c127 -65 191 -228 176 -447 -12 -173 -67
-281 -170 -336 -58 -31 -174 -31 -233 1 -128 67 -187 195 -187 407 -1 147 24
231 90 304 26 29 59 58 75 67 74 38 179 40 249 4z"/>
</g>
</svg>
