<?xml version="1.0" standalone="no"?>
<!DOCTYPE svg PUBLIC "-//W3C//DTD SVG 20010904//EN"
 "http://www.w3.org/TR/2001/REC-SVG-20010904/DTD/svg10.dtd">
<svg version="1.0" xmlns="http://www.w3.org/2000/svg"
 width="400.000000pt" height="400.000000pt" viewBox="0 0 400.000000 400.000000"
 preserveAspectRatio="xMidYMid meet">

<g transform="translate(0.000000,400.000000) scale(0.100000,-0.100000)"
fill="#000000" stroke="none">
<path d="M0 2000 l0 -2000 2000 0 2000 0 0 2000 0 2000 -2000 0 -2000 0 0
-2000z m876 304 c18 -9 43 -32 55 -50 l21 -35 40 37 c54 48 101 67 173 68 80
1 131 -25 162 -84 22 -42 23 -52 23 -302 l0 -259 -82 3 -83 3 -5 226 c-5 244
-7 252 -61 264 -43 10 -86 -3 -125 -37 l-34 -30 0 -214 0 -214 -79 0 -80 0 -3
218 c-3 186 -6 222 -20 244 -34 51 -115 48 -173 -7 l-35 -32 0 -212 0 -212
-80 2 -80 2 0 313 0 314 80 0 80 0 1 -27 c1 -16 1 -31 0 -35 -2 -14 16 -8 33
11 57 63 188 85 272 45z m1059 0 c70 -25 156 -111 181 -184 28 -81 25 -190 -8
-260 -35 -76 -67 -111 -138 -149 -112 -60 -254 -53 -362 19 -120 80 -168 266
-104 406 75 164 247 231 431 168z m808 3 c19 -8 47 -32 63 -53 l29 -37 3 -269
3 -268 -81 0 -80 0 0 206 c0 167 -3 212 -16 239 -16 34 -54 55 -101 55 -32 0
-93 -26 -120 -52 -23 -21 -23 -26 -23 -235 l0 -213 -80 0 -80 0 0 315 0 315
80 0 80 0 0 -35 c0 -38 10 -44 31 -19 17 20 79 52 126 64 47 11 120 6 166 -13z
m689 -7 c147 -55 229 -229 184 -393 -43 -158 -171 -246 -340 -235 -125 8 -219
68 -274 173 -37 71 -43 197 -13 276 51 135 182 215 332 204 31 -3 81 -14 111
-25z"/>
<path d="M1745 2166 c-64 -29 -95 -85 -95 -170 0 -135 119 -216 230 -158 54
29 82 91 78 174 -4 71 -20 103 -70 141 -33 25 -104 31 -143 13z"/>
<path d="M3250 2173 c-121 -46 -147 -229 -46 -322 39 -37 128 -41 175 -9 52
35 74 80 75 152 1 82 -25 133 -84 164 -42 21 -88 27 -120 15z"/>
</g>
</svg>
