<?xml version="1.0" encoding="utf-8"?>
<!-- Generator: Adobe Illustrator 24.3.0, SVG Export Plug-In . SVG Version: 6.00 Build 0)  -->
<svg version="1.1" id="_x31_" xmlns="http://www.w3.org/2000/svg" xmlns:xlink="http://www.w3.org/1999/xlink" x="0px" y="0px"
	 width="512px" height="256px" viewBox="0 0 512 256" style="enable-background:new 0 0 512 256;" xml:space="preserve">
<style type="text/css">
	.st0{fill-rule:evenodd;clip-rule:evenodd;fill:#014946;}
	.st1{fill-rule:evenodd;clip-rule:evenodd;fill:#FFFFFF;}
	.st2{fill-rule:evenodd;clip-rule:evenodd;fill:#E5E32C;}
	.st3{fill-rule:evenodd;clip-rule:evenodd;}
</style>
<g>
	<path class="st0" d="M512,128c-170.7,0-341.3,0-512,0V0h512V128z"/>
	<path class="st1" d="M76.7,41.8c5.5-0.6,11.3,0.2,15.9,3.4c3.8,2.5,6.4,6.6,7.6,10.9c1.4,4.9,1.4,10.1,0.3,15
		c-1.1,4.7-3.7,9.1-7.7,11.8c-4.2,2.9-9.4,3.9-14.4,3.6c-4.7-0.2-9.5-1.8-13-5.1c-4-3.6-6.1-9-6.6-14.3c-0.6-6.2,0.5-13,4.4-18
		C66.4,44.8,71.5,42.3,76.7,41.8L76.7,41.8z M77.3,45c-2.2,0.6-4.2,2-5.6,3.8c-2.5,3.3-3.4,7.5-3.8,11.6c-0.3,5.3-0.1,10.8,1.9,15.7
		c1.1,2.7,3.1,5.3,5.9,6.5c3.4,1.5,7.6,1.1,10.5-1.3c2.1-1.7,3.5-4.1,4.4-6.7c1.4-4.3,1.7-8.8,1.5-13.2c-0.2-3.3-0.8-6.7-2.2-9.8
		c-1-2.1-2.4-4.1-4.4-5.4C83.1,44.6,80.1,44.4,77.3,45L77.3,45z M108.4,42.5c2.3,0,4.6,0,7,0c3,0,5.9,2.7,5.9,5.8
		c0,11.3,0,22.6,0,34c4.1,0,8.1,0,12.2,0c0-13.2,0-26.5,0-39.7c3,0,6.1,0,9.1,0c0,13.3,0,26.5,0,39.8c4,0,8.1,0,12.1,0
		c0-13.3,0-26.5,0-39.8c3,0,6.1,0,9.1,0c0,13.2,0,26.5,0,39.7c1.8,0,3.7,0,5.5,0c-0.7,4.7-1.5,9.4-2.2,14c-1.3,0-2.5,0-3.8,0
		c0-3.7,0-7.3,0-11c-17,0-34.1,0-51.1,0c0-12.3,0-24.7,0-37c0.1-2-1.8-3.8-3.8-3.9C108.3,43.7,108.4,43.1,108.4,42.5L108.4,42.5z
		 M196,42.5c1.3,0,2.6,0,3.9,0c4.8,11.9,9.6,23.8,14.4,35.7c0.8,2.1,2.3,4.1,4.5,4.8c0,0.8,0,1.5,0,2.3c-2.3,0-4.6,0-7,0
		c-1.8-0.1-3.7-1-4.5-2.7c-1.3-2.7-2.5-5.4-3.7-8.1c-6,0-12,0-18,0c-1.6,3.6-3.3,7.2-4.9,10.9c-1.5,0-3,0-4.5,0
		C182.9,71,189.4,56.7,196,42.5L196,42.5z M187,71.3c5.1,0,10.2,0,15.3,0c-2.3-6.3-4.6-12.5-6.9-18.7
		C192.6,58.8,189.8,65.1,187,71.3L187,71.3z M246.2,42.5c1.3,0,2.6,0,3.8,0c4.5,11.1,8.9,22.3,13.4,33.4c0.8,1.9,1.3,4,2.9,5.4
		c0.6,0.6,1.5,0.9,2.4,1c-0.8,4.7-1.5,9.3-2.3,14c-1.3,0-2.6,0-3.8,0c0-3.7,0-7.3,0-11c-10.8,0-21.6,0-32.4,0c0,3.7,0,7.3,0,11
		c-1.3,0-2.5,0-3.8,0c-0.8-4.7-1.5-9.4-2.3-14c1.2,0,2.4,0,3.6,0C234,69,240,55.7,246.2,42.5L246.2,42.5z M232.3,82.2
		c8.9,0,17.8,0,26.7,0c-1.8-0.8-3.1-2.5-3.8-4.3c-3.2-8.5-6.4-16.9-9.5-25.3C241.2,62.4,236.7,72.3,232.3,82.2L232.3,82.2z
		 M273.9,42.5c11.9,0,23.7,0,35.6,0c-0.8,3.3-1.5,6.7-2.3,10c-1.3,0-2.5,0-3.8,0c0-2.3,0-4.6,0-6.9c-5.6,0-11.2,0-16.8,0
		c0,4.8,0,9.6,0,14.3c4.2,0.1,8.3-0.2,12.5,0.2c3.3,0.4,6.7,1.5,8.9,4c2.3,2.7,2.9,6.4,2.6,9.9c-0.1,2.9-1.1,5.8-3.3,7.8
		c-2.8,2.7-6.9,3.4-10.7,3.5c-6.4,0-12.8,0-19.2,0c0-12.4,0-24.9,0-37.3c-0.1-1.9-1.9-3.4-3.7-3.6C273.9,43.7,273.9,43.1,273.9,42.5
		L273.9,42.5z M286.6,63c0,6.4,0,12.8,0,19.2c2.6,0,5.2,0,7.8,0c2,0,4.1-0.7,5.4-2.3c1.5-2,1.8-4.6,1.8-7.1c0-2.5-0.2-5.2-1.7-7.3
		c-1.3-1.8-3.5-2.5-5.6-2.5C291.8,63,289.2,63,286.6,63L286.6,63z M336,42.5c1.3,0,2.5,0,3.8,0c4.7,11.6,9.4,23.2,14,34.8
		c0.9,2.4,2.3,5,5,5.7c0,0.8,0,1.5,0,2.3c-2.1,0-4.2,0-6.4,0c-1.3,0-2.8-0.3-3.8-1.1c-0.9-0.7-1.4-1.7-1.9-2.7
		c-1.1-2.4-2.1-4.7-3.2-7.1c-6,0-12,0-17.9,0c-1.7,3.6-3.3,7.3-4.9,10.9c-1.5,0-2.9,0-4.4,0C322.9,71,329.4,56.7,336,42.5L336,42.5z
		 M335.4,52.6c-2.8,6.2-5.6,12.5-8.4,18.8c5.1,0,10.2,0,15.3,0C340.1,65.1,337.7,58.8,335.4,52.6L335.4,52.6z M362.7,42.5
		c2.3,0,4.6,0,6.9,0c2.5,0,4.8,1.7,5.7,4.1c0.4,1.1,0.2,2.3,0.3,3.4c0,4.1,0,8.3,0,12.4c5.5,0,10.9,0,16.4,0c0-6.6,0-13.3,0-19.9
		c3,0,6.1,0,9.1,0c0,14.3,0,28.5,0,42.8c-3,0-6.1,0-9.1,0c0-6.6,0-13.2,0-19.8c-5.4,0-10.9,0-16.3,0c0,6.6,0,13.2,0,19.8
		c-3,0-6.1,0-9.1,0c0-12.3,0-24.7,0-37c0.1-2-1.8-3.8-3.8-3.9C362.7,43.7,362.7,43.1,362.7,42.5L362.7,42.5z M410.8,42.5
		c2.4,0,4.8,0,7.1,0c2.5,0.1,4.8,2,5.5,4.4c0.3,1.1,0.2,2.2,0.2,3.3c0,4,0,8,0,12c6.6-6.6,13.4-13.2,20-19.8c1.6,0,3.3,0,4.9,0
		c-5.7,5.6-11.4,11.2-17.1,16.8c5.3,6.7,10.6,13.3,15.8,19.9c1.5,1.9,3.6,3.3,6,3.8c0,0.8,0,1.5,0,2.3c-2.9-0.1-5.8,0.2-8.6-0.2
		c-3-0.4-5.6-2.2-7.4-4.6c-4-5.1-7.9-10.3-11.9-15.5c-0.6,0.6-1.1,1.1-1.7,1.6c0,6.2,0,12.4,0,18.6c-3,0-6.1,0-9.1,0
		c0-12.3,0-24.7,0-37c0-2-1.8-3.7-3.8-3.9C410.7,43.7,410.7,43.1,410.8,42.5z"/>
	<path class="st2" d="M0,128c170.7,0,341.3,0,512,0v128H0V128z"/>
	<path class="st3" d="M106,171.1c1-0.4,2.1-0.8,3.1-1.3c1,2.6,5.2,2.6,6.2,0c1.1,0.4,2.1,0.8,3.1,1.3c-0.8,2.2-2.9,3.7-5.2,3.8
		C110.4,175.3,107,174,106,171.1L106,171.1z M393.9,170c1.1-0.7,2.5,0.2,2.8,1.4c0.5,1.4-0.3,3.4-2,3.4
		C392.5,174.5,392.1,171,393.9,170L393.9,170z M399.1,169.9c1.2-0.7,2.6,0.4,2.8,1.7c0.4,1.4-0.6,3.3-2.2,3.1
		C397.5,174.3,397.3,170.9,399.1,169.9L399.1,169.9z M282.4,177c3.3-0.8,6.9-0.6,9.9,1c2.5,1.3,4.4,3.6,5.3,6.2c1,3,0.9,6.5-0.4,9.4
		c-1.1,2.6-3.3,4.7-5.9,5.7c-2.6,1.1-5.5,1.3-8.2,0.7c-3.3-0.6-6.3-2.7-7.8-5.7c-1.8-3.4-1.9-7.7-0.4-11.2
		C276.3,180.2,279.2,177.9,282.4,177L282.4,177z M284.1,180.9c-1.1,0.3-2.2,0.8-3,1.6c-3.2,2.9-3.4,8.5-0.4,11.6
		c2.9,3.1,8.5,3,11.2-0.3c2.7-3.2,2.4-8.7-0.9-11.4C289,180.8,286.4,180.4,284.1,180.9L284.1,180.9z M64.5,177.1c1.1,0,2.2,0,3.3,0
		c2,4.8,4,9.6,6,14.4c2-4.8,4.2-9.6,6.2-14.4c1.1,0,2.2,0,3.3,0c1.3,7.6,2.6,15.2,3.8,22.8c-1.5,0-3,0-4.6,0
		c-0.7-4.6-1.3-9.2-2-13.9c-2,4.6-4,9.2-6,13.9c-0.5,0-1,0-1.5,0c-2-4.6-3.9-9.3-5.8-13.9c-0.8,4.6-1.5,9.3-2.3,13.9
		c-1.5,0-3.1,0-4.6,0C61.7,192.3,63.1,184.7,64.5,177.1L64.5,177.1z M91.9,177.1c1.5,0,3,0,4.5,0c0,7.6,0,15.2,0,22.8
		c-1.5,0-3,0-4.5,0C91.9,192.3,91.9,184.7,91.9,177.1L91.9,177.1z M102.1,177.1c1.5,0,3,0,4.6,0c0,5,0,10,0,15
		c4.1-5,8.3-10,12.4-15.1c1.1,0,2.1,0,3.2,0c0,7.6,0,15.2,0,22.8c-1.5,0-3,0-4.5,0c0-5,0-10.1,0-15.1c-4.1,5.1-8.3,10.1-12.4,15.1
		c-1.1,0-2.2,0-3.3,0C102.1,192.3,102.1,184.7,102.1,177.1L102.1,177.1z M136.7,177.1c4.4,0,8.9,0,13.3,0c0,1.3,0,2.6,0,3.9
		c-2.9,0-5.8,0-8.7,0c0,1.7,0,3.4,0,5.1c2.8,0,5.9-0.3,8.3,1.5c3.4,2.4,3.5,8,0.4,10.7c-1.4,1.2-3.4,1.7-5.2,1.7c-2.7,0-5.3,0-8,0
		C136.7,192.3,136.7,184.7,136.7,177.1L136.7,177.1z M141.3,190c0,2,0,4,0,6c1.7-0.1,3.6,0.3,5.2-0.7c1.6-1,1.4-3.8-0.3-4.6
		C144.7,189.8,142.9,190.1,141.3,190L141.3,190z M163.5,177.1c1.2,0,2.4,0,3.6,0c3.2,7.6,6.4,15.2,9.5,22.8c-1.6,0-3.3,0-4.9,0
		c-0.7-1.6-1.3-3.2-2-4.8c-3,0-6.1,0-9.1,0c-0.7,1.6-1.3,3.2-2,4.8c-1.6,0-3.3,0-4.9,0C156.9,192.3,160.2,184.7,163.5,177.1
		L163.5,177.1z M162,191.5c2.1,0,4.3,0,6.4,0c-1.1-2.7-2.1-5.4-3.2-8C164.1,186.1,163.1,188.8,162,191.5L162,191.5z M179.9,177.1
		c1.5,0,3,0,4.5,0c0,2.9,0,5.9,0,8.8c3.2,0,6.4,0,9.5,0c0-2.9,0-5.9,0-8.8c1.5,0,3,0,4.6,0c0,7.6,0,15.2,0,22.8c-1.5,0-3,0-4.6,0
		c0-3.4,0-6.7,0-10.1c-3.2,0-6.4,0-9.5,0c0,3.4,0,6.7,0,10.1c-1.5,0-3,0-4.5,0C179.9,192.3,179.9,184.7,179.9,177.1L179.9,177.1z
		 M204.2,177.1c1.5,0,3,0,4.6,0c0,3.2,0,6.3,0,9.5c2.7-3.2,5.5-6.3,8.2-9.5c1.9,0,3.8,0,5.7,0c-3.2,3.5-6.4,7-9.7,10.5
		c3.4,4.1,6.8,8.2,10.2,12.3c-2,0-4,0-6,0c-2.7-3.4-5.4-6.8-8.1-10.2c-0.3,0.2-0.5,0.5-0.4,0.9c0,3.1,0,6.2,0,9.3
		c-1.5,0-3.1,0-4.6,0C204.2,192.3,204.2,184.7,204.2,177.1L204.2,177.1z M247.6,177.1c1.1,0,2.2,0,3.3,0c2,4.8,4,9.6,6,14.4
		c2.1-4.8,4.2-9.6,6.3-14.4c1.1,0,2.2,0,3.3,0c1.2,7.6,2.5,15.2,3.8,22.8c-1.5,0-3.1,0-4.6,0c-0.7-4.6-1.3-9.3-2-13.9
		c-2,4.6-4,9.2-6,13.9c-0.5,0-1.1,0-1.6,0c-1.9-4.6-3.9-9.3-5.8-13.9c-0.8,4.6-1.5,9.3-2.3,13.9c-1.5,0-3.1,0-4.6,0
		C244.8,192.3,246.2,184.7,247.6,177.1L247.6,177.1z M304.6,178.9c1.3-1.3,3.3-1.8,5.1-1.8c2.5,0,5,0,7.5,0c0,7.6,0,15.2,0,22.8
		c-1.5,0-3,0-4.6,0c0-2.9,0-5.9,0-8.8c-0.2,0-0.5,0-0.7,0.1c-2,2.9-3.9,5.8-5.8,8.7c-1.8,0.1-3.7,0-5.5,0c2.2-3.1,4.4-6.1,6.7-9.1
		c-1.5-0.4-2.9-1.1-3.8-2.4C301.8,185.6,302.1,181.3,304.6,178.9L304.6,178.9z M308.7,181.3c-2.2,1-2.2,4.6,0,5.7
		c1.2,0.6,2.7,0.6,4,0.6c0-2.3,0-4.5,0-6.8C311.4,180.8,309.9,180.7,308.7,181.3L308.7,181.3z M331.7,177.1c1.5,0,3,0,4.5,0
		c0,3.2,0,6.3,0,9.5c2.7-3.2,5.5-6.3,8.2-9.5c1.9,0,3.8,0,5.8,0c-3.2,3.5-6.4,7-9.7,10.5c3.4,4.1,6.8,8.2,10.1,12.3c-2,0-4,0-6,0
		c-2.7-3.4-5.4-6.8-8.1-10.2c-0.3,0.2-0.5,0.5-0.4,0.9c0,3.1,0,6.2,0,9.2c-1.5,0.1-3,0-4.5,0C331.7,192.3,331.7,184.7,331.7,177.1
		L331.7,177.1z M354.1,177.1c2.6,0,5.1,0,7.7,0c1.8,0,3.6,0.4,4.9,1.7c2.1,1.7,2.8,4.7,2.2,7.3c-0.3,1.9-1.5,3.7-3.2,4.5
		c-2.2,1.2-4.7,0.8-7.1,0.9c0,2.8,0,5.6,0,8.5c-1.5,0-3,0-4.5,0C354.1,192.3,354.1,184.7,354.1,177.1L354.1,177.1z M358.6,181
		c0,2.2,0,4.4,0,6.6c1.4-0.1,2.9,0.3,4.2-0.4c1.8-1,2.2-3.8,0.7-5.2C362.2,180.7,360.2,181.1,358.6,181L358.6,181z M378.8,177.1
		c-3.3,7.6-6.6,15.2-9.8,22.8c1.6,0,3.3,0,4.9,0c0.7-1.6,1.3-3.2,2-4.8c3,0,6.1,0,9.1,0c0.6,1.6,1.3,3.2,2,4.7c1.6,0,3.3,0,4.9,0
		c-3.2-7.6-6.3-15.2-9.6-22.8C381.1,177.1,380,177.1,378.8,177.1L378.8,177.1z M380.5,183.4c1.1,2.7,2.1,5.4,3.2,8.1
		c-2.1,0-4.2,0-6.3,0C378.4,188.8,379.5,186.1,380.5,183.4L380.5,183.4z M395.1,177.1c1.5,0,3,0,4.6,0c0,7.6,0,15.2,0,22.8
		c-1.5,0-3.1,0-4.6,0C395.1,192.3,395.1,184.7,395.1,177.1L395.1,177.1z M405.5,177.1c1.5,0,3,0,4.5,0c0,2.9,0,5.9,0,8.8
		c3.2,0,6.4,0,9.5,0c0-2.9,0-5.9,0-8.8c1.5,0,3,0,4.5,0c0,7.6,0,15.2,0,22.8c-1.5,0-3,0-4.5,0c0-3.4,0-6.7,0-10.1
		c-3.2,0-6.4,0-9.5,0c0,3.4,0,6.7,0,10.1c-1.5,0-3,0-4.6,0C405.5,192.3,405.5,184.7,405.5,177.1L405.5,177.1z M437.1,177.1
		c1.2,0,2.4,0,3.6,0c3.2,7.6,6.4,15.2,9.5,22.8c-1.6,0-3.3,0-4.9,0c-0.7-1.6-1.3-3.2-2-4.7c-3,0-6.1,0-9.1,0c-0.7,1.6-1.3,3.2-2,4.8
		c-1.6,0-3.3,0-4.9,0C430.6,192.3,433.9,184.7,437.1,177.1L437.1,177.1z M435.7,191.5c2.1,0,4.2,0,6.4,0c-1.1-2.7-2.1-5.3-3.2-8
		C437.8,186.1,436.7,188.8,435.7,191.5L435.7,191.5z M227.2,195.2c1.8-0.8,4.1,0.7,3.8,2.7c0,2.1-2.6,3.2-4.3,2.1
		C225.1,198.9,225.3,195.9,227.2,195.2z"/>
</g>
</svg>
